<?xml version="1.0" encoding="UTF-8"?>
<!DOCTYPE svg PUBLIC "-//W3C//DTD SVG 1.1//EN" "http://www.w3.org/Graphics/SVG/1.1/DTD/svg11.dtd">
<!-- Creator: CorelDRAW 2020 (64-Bit) -->
<svg xmlns="http://www.w3.org/2000/svg" xml:space="preserve" width="60.2597mm" height="12.9218mm" version="1.1" style="shape-rendering:geometricPrecision; text-rendering:geometricPrecision; image-rendering:optimizeQuality; fill-rule:evenodd; clip-rule:evenodd"
viewBox="0 0 630.69 135.24"
 xmlns:xlink="http://www.w3.org/1999/xlink"
 xmlns:xodm="http://www.corel.com/coreldraw/odm/2003">
 <defs>
  <style type="text/css">
   <![CDATA[
    .fil0 {fill:#FEFEFE;fill-rule:nonzero}
   ]]>
  </style>
 </defs>
 <g id="Слой_x0020_1">
  <metadata id="CorelCorpID_0Corel-Layer"/>
  <path class="fil0" d="M136.03 2.07l60.06 60.06c1.38,1.39 2.07,3.2 2.07,5.01 0,1.74 -0.65,3.49 -1.93,4.85l-60.2 60.21c-1.38,1.37 -3.2,2.06 -5.01,2.06 -1.82,-0 -3.63,-0.69 -5,-2.06l-26.74 -26.74c-0.31,0.64 -0.72,1.25 -1.23,1.8 -1.99,2.17 -25.79,25.89 -25.92,25.92 -1.38,1.38 -3.19,2.07 -4.99,2.07 -1.81,0 -3.62,-0.69 -5,-2.07l-60.06 -60.06c-1.38,-1.39 -2.07,-3.21 -2.07,-5.01 0,-1.74 0.65,-3.49 1.94,-4.85l60.19 -60.21c1.39,-1.38 3.2,-2.07 5.01,-2.07 1.74,0 3.49,0.65 4.85,1.93l26.9 26.88c0.31,-0.65 0.72,-1.26 1.24,-1.8 2.01,-2.19 25.78,-25.89 25.91,-25.92 1.38,-1.38 3.19,-2.07 5,-2.07 1.81,0 3.62,0.69 5,2.07zm-56.44 52.73l-10.48 10.47c-1.03,1.03 -1.03,2.69 0,3.72l60.05 60.05c1.02,1.02 2.69,1.03 3.71,0.01l60.06 -60.05c1.02,-1.02 1.02,-2.69 0,-3.72l-60.06 -60.06c-1.02,-1.02 -2.69,-1.02 -3.71,0l-25.76 25.76c-1.02,1.03 -1.02,2.69 0,3.71l28.59 28.59c2.66,2.66 2.66,6.97 0,9.63l-10.47 10.48c-2.66,2.66 -6.98,2.66 -9.64,0l-28.59 -28.59c-1.03,-1.03 -2.68,-1.03 -3.71,0z"/>
  <path class="fil0" d="M258.82 37.48c0,-4.54 -1.59,-8.42 -4.76,-11.63 -3.17,-3.21 -6.98,-4.82 -11.44,-4.82 -4.63,0 -8.57,1.6 -11.83,4.81 -3.26,3.21 -4.88,7.08 -4.88,11.62l0 60.32c0,4.54 1.61,8.41 4.84,11.62 3.23,3.21 7.12,4.81 11.68,4.81 4.56,0 8.43,-1.6 11.61,-4.81 3.18,-3.2 4.78,-7.08 4.78,-11.6l0 -23.17 -11.05 0 0 23.41c0,1.45 -0.52,2.72 -1.54,3.78 -1.03,1.07 -2.32,1.6 -3.86,1.6 -1.54,0 -2.83,-0.53 -3.86,-1.6 -1.02,-1.07 -1.54,-2.33 -1.54,-3.78l0 -60.82c0,-1.45 0.51,-2.71 1.54,-3.78 1.03,-1.07 2.31,-1.6 3.86,-1.6 1.54,0 2.83,0.54 3.86,1.6 1.03,1.07 1.54,2.34 1.54,3.79l0 25.7 11.05 0 0 -25.45z"/>
  <polygon class="fil0" points="298.53,113.57 287.48,113.57 287.48,81.44 277.07,81.44 277.07,113.57 266.02,113.57 266.02,21.55 277.07,21.55 277.07,71.15 287.48,71.15 287.48,21.55 298.53,21.55 "/>
  <polygon class="fil0" points="335.03,113.57 305.21,113.57 305.21,21.55 335.03,21.55 335.03,31.82 316.26,31.82 316.26,60.1 335.03,60.1 335.03,70.39 316.26,70.39 316.26,103.29 335.03,103.29 "/>
  <polygon class="fil0" points="373.83,31.82 363.03,31.82 363.03,113.57 351.98,113.57 351.98,31.82 340.67,31.82 340.67,21.55 373.83,21.55 "/>
  <path class="fil0" d="M399.63 98.03l0 -60.82c0,-1.45 -0.54,-2.71 -1.61,-3.78 -1.07,-1.07 -2.33,-1.61 -3.79,-1.61 -1.54,0 -2.85,0.53 -3.92,1.61 -1.07,1.07 -1.6,2.33 -1.6,3.78l0 60.82c0,1.45 0.53,2.71 1.6,3.78 1.07,1.07 2.38,1.6 3.92,1.6 1.46,0 2.72,-0.53 3.79,-1.6 1.07,-1.07 1.61,-2.33 1.61,-3.78zm11.05 -0.25c0,4.54 -1.58,8.4 -4.75,11.62 -3.17,3.21 -7.03,4.81 -11.57,4.81 -4.54,0 -8.46,-1.6 -11.76,-4.81 -3.3,-3.21 -4.94,-7.08 -4.94,-11.62l0 -60.32c0,-4.54 1.61,-8.41 4.83,-11.62 3.22,-3.21 7.12,-4.81 11.68,-4.81 4.56,0 8.45,1.6 11.67,4.81 3.23,3.21 4.84,7.08 4.84,11.62l0 60.32z"/>
  <path class="fil0" d="M450.19 37.46l0 76.11 -11.05 0 0 -76.35c0,-1.45 -0.54,-2.72 -1.61,-3.79 -1.07,-1.07 -2.34,-1.61 -3.79,-1.61 -1.54,0 -2.85,0.53 -3.92,1.61 -1.07,1.07 -1.61,2.33 -1.61,3.79l0 76.35 -10.92 0 0 -76.11c0,-4.54 1.58,-8.41 4.74,-11.62 3.16,-3.21 7,-4.81 11.52,-4.81 4.62,0 8.54,1.6 11.78,4.81 3.24,3.21 4.87,7.08 4.87,11.62z"/>
  <path class="fil0" d="M510.6 97.76c0,4.54 -1.59,8.42 -4.76,11.63 -3.17,3.21 -7.02,4.82 -11.57,4.82 -4.54,0 -8.47,-1.6 -11.75,-4.81 -3.3,-3.21 -4.96,-7.08 -4.96,-11.62l0 -60.32c0,-4.54 1.61,-8.41 4.85,-11.62 3.22,-3.21 7.11,-4.81 11.68,-4.81 4.56,0 8.45,1.6 11.68,4.82 3.23,3.21 4.84,7.09 4.84,11.63l0 25.45 -11.05 0 0 -25.71c0,-1.45 -0.54,-2.72 -1.61,-3.79 -1.07,-1.07 -2.34,-1.61 -3.79,-1.61 -1.54,0 -2.85,0.53 -3.91,1.61 -1.08,1.07 -1.62,2.33 -1.62,3.78l0 60.82c0,1.45 0.53,2.71 1.62,3.78 1.07,1.07 2.37,1.6 3.91,1.6 1.46,0 2.72,-0.53 3.79,-1.61 1.07,-1.07 1.61,-2.34 1.61,-3.79l0 -13.11 -5.27 0 0 -10.28 16.33 0 0 23.13z"/>
  <path class="fil0" d="M539.27 56.63l0 -18.9c0,-1.45 -0.54,-2.72 -1.61,-3.79 -1.08,-1.07 -2.38,-1.6 -3.92,-1.6l-5.4 0 0 29.69 5.92 0c3.34,-0.34 5.02,-2.14 5.02,-5.4zm10.79 0.26c0,2.23 -0.68,4.41 -2.02,6.56 -1.34,2.14 -3.11,3.56 -5.31,4.24 4.9,1.97 7.33,5.57 7.33,10.79l0 35.09 -10.79 0 0 -35.59c0,-3.27 -1.64,-5.07 -4.89,-5.42l-6.04 0 0 41 -11.05 0 0 -92.02 16.39 0c4.52,0 8.39,1.6 11.59,4.82 3.2,3.22 4.8,7.09 4.8,11.63l0 18.9z"/>
  <path class="fil0" d="M589.73 97.76c0,4.54 -1.58,8.42 -4.75,11.63 -3.16,3.21 -7.03,4.82 -11.57,4.82 -4.54,0 -8.46,-1.61 -11.76,-4.82 -3.3,-3.21 -4.95,-7.09 -4.95,-11.63l0 -76.21 11.06 0 0 76.47c0,1.45 0.53,2.72 1.6,3.79 1.07,1.07 2.38,1.61 3.92,1.61 1.47,0 2.72,-0.53 3.8,-1.61 1.07,-1.07 1.61,-2.34 1.61,-3.79l0 -76.47 11.05 0 0 76.21z"/>
  <path class="fil0" d="M619.9 71.67l0 -33.93c0,-1.45 -0.53,-2.72 -1.59,-3.79 -1.06,-1.07 -2.35,-1.6 -3.87,-1.6l-5.59 0 0 44.73 5.59 0c1.52,0 2.81,-0.53 3.87,-1.61 1.06,-1.07 1.59,-2.33 1.59,-3.79zm10.79 0.39c0,4.54 -1.55,8.31 -4.66,11.31 -3.11,3 -6.92,4.5 -11.43,4.5l-5.75 0 0 25.71 -11.05 0 0 -92.02 16.57 0c4.54,0 8.4,1.6 11.57,4.82 3.17,3.22 4.75,7.09 4.75,11.63l0 34.06z"/>
 </g>
</svg>
