<?xml version="1.0" encoding="UTF-8"?>
<!DOCTYPE svg PUBLIC "-//W3C//DTD SVG 1.1//EN" "http://www.w3.org/Graphics/SVG/1.1/DTD/svg11.dtd">
<!-- Creator: CorelDRAW 2020 (64-Bit) -->
<svg xmlns="http://www.w3.org/2000/svg" xml:space="preserve" width="46.1172mm" height="8.2278mm" version="1.1" style="shape-rendering:geometricPrecision; text-rendering:geometricPrecision; image-rendering:optimizeQuality; fill-rule:evenodd; clip-rule:evenodd"
viewBox="0 0 192.49 34.34"
 xmlns:xlink="http://www.w3.org/1999/xlink"
 xmlns:xodm="http://www.corel.com/coreldraw/odm/2003">
 <defs>
  <style type="text/css">
   <![CDATA[
    .fil0 {fill:#1C1C1C;fill-rule:nonzero}
    .fil1 {fill:#2E509C;fill-rule:nonzero}
   ]]>
  </style>
 </defs>
 <g id="Слой_x0020_1">
  <metadata id="CorelCorpID_0Corel-Layer"/>
  <path class="fil0" d="M50.53 16.16l-15.8 -15.8c-0.48,-0.48 -1.27,-0.48 -1.76,0l-6.78 6.78c-0.48,0.48 -0.48,1.27 -0,1.75l-8.27 -8.28c-0.49,-0.48 -1.27,-0.48 -1.76,0l-15.8 15.8c-0.48,0.48 -0.48,1.27 0,1.76l15.8 15.8c0.48,0.49 1.27,0.49 1.76,0l6.78 -6.78c0.48,-0.48 0.48,-1.27 -0,-1.75l8.28 8.28c0.48,0.49 1.27,0.49 1.76,0l15.8 -15.8c0.48,-0.49 0.48,-1.27 0,-1.76z"/>
  <path class="fil1" d="M19.93 13.41c0.49,-0.49 1.27,-0.49 1.75,0l7.52 7.52c0.49,0.48 1.27,0.48 1.76,0l2.76 -2.76c0.49,-0.48 0.49,-1.27 0,-1.76l-7.52 -7.52c-0.49,-0.48 -0.49,-1.27 0,-1.76l6.78 -6.78c0.48,-0.48 1.27,-0.48 1.76,0l15.8 15.8c0.48,0.49 0.48,1.27 0,1.76l-15.8 15.8c-0.48,0.48 -1.27,0.48 -1.76,-0l-15.8 -15.8c-0.49,-0.49 -0.49,-1.27 0,-1.76l2.76 -2.76z"/>
  <path class="fil1" d="M77.99 8.46c0,-1.31 -0.46,-2.43 -1.38,-3.36 -0.91,-0.93 -2.02,-1.39 -3.3,-1.39 -1.34,0 -2.48,0.46 -3.42,1.39 -0.94,0.93 -1.41,2.05 -1.41,3.36l0 17.43c0,1.31 0.47,2.43 1.4,3.36 0.93,0.93 2.06,1.39 3.37,1.39 1.32,0 2.44,-0.46 3.35,-1.39 0.92,-0.93 1.38,-2.05 1.38,-3.35l0 -6.7 -3.19 0 0 6.76c0,0.42 -0.15,0.79 -0.45,1.09 -0.3,0.31 -0.67,0.46 -1.11,0.46 -0.45,0 -0.82,-0.15 -1.11,-0.46 -0.3,-0.31 -0.44,-0.67 -0.44,-1.09l0 -17.58c0,-0.42 0.15,-0.78 0.44,-1.09 0.3,-0.31 0.67,-0.46 1.11,-0.46 0.45,0 0.82,0.15 1.11,0.46 0.3,0.31 0.45,0.68 0.45,1.1l0 7.43 3.19 0 0 -7.35z"/>
  <polygon class="fil1" points="89.47,30.45 86.27,30.45 86.27,21.16 83.26,21.16 83.26,30.45 80.07,30.45 80.07,3.86 83.26,3.86 83.26,18.19 86.27,18.19 86.27,3.86 89.47,3.86 "/>
  <polygon class="fil1" points="100.01,30.45 91.4,30.45 91.4,3.86 100.01,3.86 100.01,6.83 94.59,6.83 94.59,15 100.01,15 100.01,17.97 94.59,17.97 94.59,27.48 100.01,27.48 "/>
  <polygon class="fil1" points="111.22,6.83 108.1,6.83 108.1,30.45 104.91,30.45 104.91,6.83 101.64,6.83 101.64,3.86 111.22,3.86 "/>
  <path class="fil1" d="M118.68 25.96l0 -17.58c0,-0.42 -0.16,-0.78 -0.47,-1.09 -0.31,-0.31 -0.67,-0.46 -1.09,-0.46 -0.45,0 -0.82,0.15 -1.13,0.46 -0.31,0.31 -0.46,0.67 -0.46,1.09l0 17.58c0,0.42 0.15,0.78 0.46,1.09 0.31,0.31 0.69,0.46 1.13,0.46 0.42,0 0.79,-0.15 1.09,-0.46 0.31,-0.31 0.47,-0.67 0.47,-1.09zm3.19 -0.07c0,1.31 -0.46,2.43 -1.37,3.36 -0.92,0.93 -2.03,1.39 -3.34,1.39 -1.31,0 -2.44,-0.46 -3.4,-1.39 -0.95,-0.93 -1.43,-2.05 -1.43,-3.36l0 -17.43c0,-1.31 0.46,-2.43 1.4,-3.36 0.93,-0.93 2.06,-1.39 3.37,-1.39 1.32,0 2.44,0.46 3.37,1.39 0.93,0.93 1.4,2.05 1.4,3.36l0 17.43z"/>
  <path class="fil1" d="M133.29 8.45l0 21.99 -3.19 0 0 -22.07c0,-0.42 -0.16,-0.79 -0.46,-1.09 -0.31,-0.31 -0.67,-0.46 -1.1,-0.46 -0.45,0 -0.82,0.15 -1.13,0.46 -0.31,0.31 -0.47,0.67 -0.47,1.09l0 22.07 -3.16 0 0 -21.99c0,-1.31 0.46,-2.43 1.37,-3.36 0.91,-0.93 2.02,-1.39 3.33,-1.39 1.33,0 2.47,0.46 3.4,1.39 0.93,0.93 1.41,2.05 1.41,3.36z"/>
  <path class="fil0" d="M150.75 25.88c0,1.31 -0.46,2.43 -1.37,3.36 -0.92,0.93 -2.03,1.39 -3.34,1.39 -1.31,0 -2.45,-0.46 -3.4,-1.39 -0.95,-0.93 -1.43,-2.05 -1.43,-3.36l0 -17.43c0,-1.31 0.47,-2.43 1.4,-3.36 0.93,-0.93 2.06,-1.39 3.37,-1.39 1.32,0 2.44,0.46 3.37,1.39 0.93,0.93 1.4,2.05 1.4,3.36l0 7.35 -3.19 0 0 -7.43c0,-0.42 -0.15,-0.79 -0.46,-1.1 -0.31,-0.31 -0.68,-0.46 -1.1,-0.46 -0.45,0 -0.82,0.15 -1.13,0.46 -0.31,0.31 -0.47,0.67 -0.47,1.09l0 17.58c0,0.42 0.15,0.78 0.47,1.09 0.31,0.31 0.68,0.46 1.13,0.46 0.42,0 0.79,-0.15 1.1,-0.46 0.31,-0.31 0.46,-0.67 0.46,-1.1l0 -3.79 -1.52 0 0 -2.97 4.72 0 0 6.69z"/>
  <path class="fil0" d="M159.04 13.99l0 -5.46c0,-0.42 -0.16,-0.79 -0.47,-1.1 -0.31,-0.31 -0.69,-0.46 -1.13,-0.46l-1.56 0 0 8.58 1.71 0c0.97,-0.1 1.45,-0.62 1.45,-1.56zm3.12 0.07c0,0.64 -0.2,1.27 -0.58,1.89 -0.39,0.62 -0.9,1.03 -1.53,1.23 1.41,0.57 2.12,1.61 2.12,3.12l0 10.14 -3.12 0 0 -10.28c0,-0.94 -0.47,-1.46 -1.41,-1.57l-1.75 0 0 11.85 -3.19 0 0 -26.59 4.74 0c1.31,0 2.42,0.46 3.35,1.39 0.93,0.93 1.39,2.05 1.39,3.36l0 5.46z"/>
  <path class="fil0" d="M173.62 25.88c0,1.31 -0.46,2.43 -1.37,3.36 -0.91,0.93 -2.03,1.39 -3.34,1.39 -1.31,0 -2.45,-0.47 -3.4,-1.39 -0.96,-0.93 -1.43,-2.05 -1.43,-3.36l0 -22.02 3.2 0 0 22.1c0,0.42 0.15,0.79 0.46,1.1 0.31,0.31 0.69,0.46 1.13,0.46 0.42,0 0.79,-0.15 1.1,-0.46 0.31,-0.31 0.46,-0.67 0.46,-1.1l0 -22.1 3.19 0 0 22.02z"/>
  <path class="fil0" d="M182.34 18.34l0 -9.81c0,-0.42 -0.15,-0.79 -0.46,-1.1 -0.31,-0.31 -0.68,-0.46 -1.12,-0.46l-1.61 0 0 12.93 1.61 0c0.44,0 0.81,-0.15 1.12,-0.46 0.31,-0.31 0.46,-0.67 0.46,-1.1zm3.12 0.11c0,1.31 -0.45,2.4 -1.35,3.27 -0.9,0.87 -2,1.3 -3.3,1.3l-1.66 0 0 7.43 -3.19 0 0 -26.59 4.79 0c1.31,0 2.43,0.46 3.34,1.39 0.92,0.93 1.37,2.05 1.37,3.36l0 9.84z"/>
  <path class="fil0" d="M190.31 9.83l0 -1.62c0,-0.31 -0.16,-0.46 -0.46,-0.46l-0.48 0 0 2.55 0.52 0c0.29,-0.02 0.43,-0.18 0.43,-0.46zm0.93 0.04c0,0.49 -0.21,0.79 -0.63,0.91 0.42,0.17 0.63,0.49 0.63,0.95l0 3.01 -0.93 0 0 -3.05c0,-0.29 -0.14,-0.44 -0.43,-0.46l-0.52 0 0 3.51 -0.95 0 0 -7.92 1.41 0c0.4,0 0.73,0.14 1.01,0.41 0.27,0.27 0.41,0.61 0.41,1l0 1.64zm0.35 5.02l0 -8.26c0,-0.5 -0.18,-0.92 -0.53,-1.27 -0.35,-0.35 -0.78,-0.53 -1.28,-0.53 -0.5,0 -0.92,0.18 -1.28,0.53 -0.36,0.35 -0.53,0.78 -0.53,1.27l0 8.26c0,0.5 0.18,0.92 0.54,1.27 0.36,0.35 0.8,0.53 1.3,0.53 0.5,0 0.92,-0.18 1.26,-0.53 0.35,-0.35 0.52,-0.78 0.52,-1.27zm0.89 0c0,0.74 -0.26,1.38 -0.78,1.9 -0.52,0.52 -1.15,0.78 -1.89,0.78 -0.75,0 -1.38,-0.26 -1.92,-0.78 -0.53,-0.52 -0.8,-1.15 -0.8,-1.9l0 -8.26c0,-0.74 0.26,-1.38 0.78,-1.9 0.52,-0.52 1.16,-0.78 1.9,-0.78 0.75,0 1.38,0.26 1.91,0.78 0.53,0.52 0.79,1.15 0.79,1.9l0 8.26z"/>
 </g>
</svg>
