<?xml version="1.0" encoding="UTF-8"?>
<!DOCTYPE svg PUBLIC "-//W3C//DTD SVG 1.1//EN" "http://www.w3.org/Graphics/SVG/1.1/DTD/svg11.dtd">
<!-- Creator: CorelDRAW 2020 (64-Bit) -->
<svg xmlns="http://www.w3.org/2000/svg" xml:space="preserve" width="211.427mm" height="53.1817mm" version="1.1" style="shape-rendering:geometricPrecision; text-rendering:geometricPrecision; image-rendering:optimizeQuality; fill-rule:evenodd; clip-rule:evenodd"
viewBox="0 0 15560.42 3914.02"
 xmlns:xlink="http://www.w3.org/1999/xlink"
 xmlns:xodm="http://www.corel.com/coreldraw/odm/2003">
 <defs>
  <style type="text/css">
   <![CDATA[
    .fil3 {fill:white}
    .fil0 {fill:white;fill-rule:nonzero}
    .fil2 {fill:url(#id0)}
    .fil1 {fill:url(#id1)}
   ]]>
  </style>
  <linearGradient id="id0" gradientUnits="userSpaceOnUse" x1="3314.49" y1="3914.02" x2="3314.49" y2="1058.35">
   <stop offset="0" style="stop-opacity:1; stop-color:#0F6688"/>
   <stop offset="0.501961" style="stop-opacity:1; stop-color:#5EAA51"/>
   <stop offset="1" style="stop-opacity:1; stop-color:#DFDF35"/>
  </linearGradient>
  <linearGradient id="id1" gradientUnits="userSpaceOnUse" x1="-0" y1="1474.18" x2="2855.06" y2="1474.18">
   <stop offset="0" style="stop-opacity:1; stop-color:#E3E036"/>
   <stop offset="0.501961" style="stop-opacity:1; stop-color:#6FC21D"/>
   <stop offset="1" style="stop-opacity:1; stop-color:#5BA65A"/>
  </linearGradient>
 </defs>
 <g id="Слой_x0020_1">
  <metadata id="CorelCorpID_0Corel-Layer"/>
  <g id="_2134075070080">
   <g>
    <path class="fil0" d="M7062.71 624.86l0 324.62 378.72 0 0 136.08 -378.72 0 0 422.99 531.19 0 0 144.27 -691.86 0 0 -1172.23 691.86 0 0 144.27 -531.19 0zm1209.28 1027.95l0 -499.22c0,-91.26 -13.66,-155.2 -41.26,-191.82 -27.33,-36.61 -73.5,-54.93 -137.99,-54.93 -34.7,0 -71.04,10.38 -109.03,31.15 -37.7,21.04 -66.94,46.45 -87.17,77.06l0 637.76 -152.47 0 0 -857.45 104.11 0 48.09 110.4c50.28,-84.43 132.25,-126.79 246.2,-126.79 188,0 281.99,114.22 281.99,342.93l0 530.92 -152.47 0zm1065.55 -413.15l-617.54 0c0,100.28 27.33,177.34 82.25,231.17 48.63,47 110.93,70.5 187.17,70.5 86.89,0 159.3,-25.69 217.5,-77.06l63.94 109.84c-23.5,23.5 -59.57,44 -107.93,61.21 -60.94,22.68 -128.7,33.88 -203.3,33.88 -107.93,0 -199.47,-36.61 -274.61,-109.85 -83.89,-80.6 -125.7,-189.09 -125.7,-325.16 0,-141.54 42.9,-255.21 128.98,-340.74 76.78,-76.23 167.77,-114.49 272.97,-114.49 122.14,0 218.05,34.43 287.46,103.56 67.22,66.4 100.83,154.38 100.83,263.96 0,33.88 -4.1,64.76 -12.03,93.17zm-368.88 -332.81c-68.04,0 -124.87,22.14 -170.77,66.13 -44,42.08 -68.59,94.27 -74.6,156.84l475.45 0c0,-62.03 -19.13,-113.67 -57.65,-155.2 -42.36,-45.09 -99.74,-67.77 -172.42,-67.77zm981.95 34.43c-33.07,-22.95 -66.4,-34.43 -100.28,-34.43 -53.83,0 -101.1,24.87 -141.27,74.33 -40.44,49.73 -60.66,109.3 -60.66,179.25l0 492.39 -152.47 0 0 -857.45 152.47 0 0 136.08c55.47,-101.65 138.26,-152.47 247.83,-152.47 27.05,0 66.4,4.92 117.77,14.48l-63.39 147.82zm115.2 946.25l82.52 -121.59c88.81,59.02 170.51,88.53 245.38,88.53 69.13,0 123.5,-11.75 163.13,-35.53 39.89,-23.77 59.84,-53.28 59.84,-88.53 0,-69.13 -50.28,-103.83 -150.57,-103.83 -17.21,0 -48.09,4.37 -92.9,13.12 -45.09,8.74 -80.06,13.12 -104.93,13.12 -121.87,0 -182.8,-45.9 -182.8,-137.99 0,-28.14 14.21,-53.83 42.63,-76.78 28.42,-22.95 63.67,-39.62 105.74,-49.73 -120.77,-56.57 -181.16,-154.93 -181.16,-295.11 0,-89.63 31.15,-164.49 93.72,-224.33 62.58,-59.84 139.64,-89.9 231.44,-89.9 84.44,0 150.29,17.49 197.84,52.19l76.23 -91.54 99.19 93.73 -91.26 69.13c39.07,50.55 58.47,116.95 58.47,198.65 0,86.62 -27.05,159.03 -80.88,218.05 -53.83,58.75 -124.6,92.36 -212.31,100.83l-125.69 13.12c-15.03,1.63 -34.98,7.37 -60.11,17.21 -24.87,9.83 -37.44,22.68 -37.44,38.53 0,21.86 26.24,32.79 78.43,32.79 22.95,0 58.75,-4.1 107.39,-12.3 48.64,-8.2 84.7,-12.3 108.2,-12.3 84.44,0 150.29,20.22 197.56,60.39 47.27,40.16 70.77,96.18 70.77,167.5 0,78.96 -35.25,142.63 -106.02,191.27 -70.77,48.36 -160.4,72.68 -268.87,72.68 -55.47,0 -113.94,-9.84 -175.43,-29.51 -61.21,-19.67 -110.67,-43.72 -148.1,-71.87zm322.43 -985.6c-53.01,0 -96.18,18.58 -129.52,56.01 -33.61,37.44 -50.28,83.07 -50.28,136.35 0,59.84 16.13,109.57 48.64,148.64 32.24,39.35 75.96,59.02 131.16,59.02 54.1,0 96.46,-19.13 127.06,-57.38 30.34,-38.26 45.64,-88.26 45.64,-150.29 0,-53.28 -16.4,-98.91 -49.46,-136.35 -32.79,-37.43 -74.05,-56.01 -123.24,-56.01zm834.39 896.52c-19.67,54.37 -60.93,99.73 -124.33,136.07 -63.12,36.34 -133.34,54.38 -211.22,54.38l0 -136.08c63.39,0 117.76,-14.76 163.13,-44.54 45.36,-29.51 68.03,-65.58 68.03,-108.47 0,-46.73 -8.19,-93.18 -24.86,-138.81 -16.4,-45.63 -37.98,-101.92 -63.94,-169.14l-232.53 -596.5 155.75 0 251.66 662.9 225.43 -662.9 155.75 0 -362.87 1003.09z"/>
    <path class="fil0" d="M13113.28 1669.21l-50.83 0 -277.89 -808.27 -261.5 808.27 -50.83 0 -370.52 -1188.62 167.23 0 235.26 818.1 258.22 -818.1 55.74 0 253.3 816.46 240.18 -816.46 167.23 0 -365.6 1188.62zm592.83 -1198.46c25.96,0 48.37,9.29 66.94,27.6 18.31,18.58 27.6,40.71 27.6,66.13 0,26.23 -9.29,48.64 -27.6,67.22 -18.58,18.31 -40.99,27.6 -66.94,27.6 -25.69,0 -47.82,-9.29 -66.4,-27.6 -18.3,-18.58 -27.6,-40.99 -27.6,-67.22 0,-25.96 9.02,-48.37 27.33,-66.4 18.04,-18.31 40.44,-27.33 66.67,-27.33zm-84.16 1182.07l0 -729.57 -118.04 0 0 -127.88 270.51 0 0 857.45 -152.47 0zm898.6 0l0 -499.22c0,-91.26 -13.66,-155.2 -41.26,-191.82 -27.33,-36.61 -73.5,-54.93 -137.99,-54.93 -34.7,0 -71.04,10.38 -109.03,31.15 -37.7,21.04 -66.94,46.45 -87.17,77.06l0 637.76 -152.47 0 0 -857.45 104.11 0 48.09 110.4c50.28,-84.43 132.25,-126.79 246.2,-126.79 188,0 281.99,114.22 281.99,342.93l0 530.92 -152.47 0zm887.4 0l0 -63.12c-52.74,51.92 -129.79,77.87 -230.62,77.87 -107.39,0 -194.28,-38.53 -261.23,-115.31 -66.67,-76.78 -100.01,-179.25 -100.01,-307.4 0,-128.7 38.53,-238.54 115.31,-329.54 76.78,-90.99 168.6,-136.35 274.61,-136.35 88.8,0 156.03,20.76 201.93,62.57l0 -397.03 152.47 0 0 1208.3 -152.47 0zm0 -659.61c-38.26,-57.66 -90.99,-86.35 -157.66,-86.35 -81.43,0 -147.55,30.34 -197.84,91.27 -50.55,60.66 -75.69,137.99 -75.69,231.99 0,206.3 94,309.59 281.72,309.59 23.77,0 52.74,-7.65 86.35,-22.68 33.6,-15.3 54.65,-31.43 63.12,-48.64l0 -475.17z"/>
   </g>
   <path class="fil0" d="M7889.01 3453.11l-138.54 -752.52 -256.57 768.92 -39.35 0 -264.77 -768.92 -135.26 752.52 -152.47 0 219.69 -1172.23 72.14 0 281.17 855.81 256.57 -855.81 72.14 0 237.73 1172.23 -152.47 0zm189.25 -430.64c0,-132.52 35.53,-239.63 106.84,-321.06 71.32,-81.43 165.04,-122.14 281.44,-122.14 122.69,0 217.78,39.07 285.54,117.5 67.77,78.15 101.65,186.63 101.65,325.7 0,138.27 -34.7,247.29 -104.11,327.35 -69.4,79.79 -163.67,119.68 -283.08,119.68 -122.41,0 -217.5,-40.44 -285.81,-121.05 -68.31,-80.6 -102.47,-189.36 -102.47,-325.98zm160.67 0c0,215.05 75.97,322.44 227.61,322.44 70.5,0 125.97,-28.7 166.14,-86.35 40.17,-57.66 60.39,-136.35 60.39,-236.09 0,-212.31 -75.42,-318.6 -226.52,-318.6 -69.4,0 -124.6,28.14 -165.86,84.7 -41.26,56.57 -61.76,134.44 -61.76,233.9zm761.71 188.54l0 -966.2 152.47 0 0 940.51c0,45.91 13.12,81.97 39.35,108.48 26.51,26.5 60.94,39.62 103.29,39.62l0 136.08c-196.73,0 -295.1,-86.07 -295.1,-258.5zm991.77 242.1l0 -63.12c-52.74,51.92 -129.79,77.87 -230.62,77.87 -107.39,0 -194.28,-38.53 -261.23,-115.31 -66.67,-76.78 -100.01,-179.25 -100.01,-307.4 0,-128.7 38.53,-238.54 115.31,-329.54 76.78,-90.99 168.6,-136.35 274.61,-136.35 88.8,0 156.03,20.76 201.93,62.57l0 -397.03 152.47 0 0 1208.3 -152.47 0zm0 -659.61c-38.26,-57.66 -90.99,-86.35 -157.66,-86.35 -81.43,0 -147.55,30.34 -197.84,91.27 -50.55,60.66 -75.69,137.99 -75.69,231.99 0,206.3 94,309.59 281.72,309.59 23.77,0 52.74,-7.65 86.35,-22.68 33.6,-15.3 54.65,-31.43 63.12,-48.64l0 -475.17zm288.71 228.98c0,-132.52 35.53,-239.63 106.84,-321.06 71.32,-81.43 165.04,-122.14 281.44,-122.14 122.69,0 217.78,39.07 285.54,117.5 67.77,78.15 101.65,186.63 101.65,325.7 0,138.27 -34.7,247.29 -104.11,327.35 -69.4,79.79 -163.67,119.68 -283.08,119.68 -122.41,0 -217.5,-40.44 -285.81,-121.05 -68.31,-80.6 -102.47,-189.36 -102.47,-325.98zm160.67 0c0,215.05 75.97,322.44 227.61,322.44 70.5,0 125.97,-28.7 166.14,-86.35 40.17,-57.66 60.39,-136.35 60.39,-236.09 0,-212.31 -75.42,-318.6 -226.52,-318.6 -69.4,0 -124.6,28.14 -165.86,84.7 -41.26,56.57 -61.76,134.44 -61.76,233.9zm1058.45 447.04l-39.35 0 -367.24 -875.48 167.23 0 225.43 600.05 231.99 -600.05 159.03 0 -377.08 875.48zm953.25 -114.77c-60.67,76.51 -153.84,114.77 -278.98,114.77 -67.22,0 -125.42,-24.6 -174.61,-73.51 -49.46,-48.91 -74.05,-109.57 -74.05,-182.53 0,-87.16 37.98,-160.67 113.94,-221.06 75.96,-60.11 172.69,-90.17 290.46,-90.17 31.97,0 68.31,7.11 108.75,21.31 0,-138.8 -61.76,-208.21 -185.54,-208.21 -95.09,0 -168.04,25.69 -219.42,77.06l-63.94 -127.88c28.97,-23.5 68.86,-43.45 119.68,-60.11 51.1,-16.67 99.74,-25.14 146.19,-25.14 124.33,0 214.77,28.42 271.07,84.98 56.29,56.57 84.43,146.47 84.43,269.97l0 307.68c0,75.14 22.4,125.42 67.22,150.56l0 75.42c-62.03,0 -108.47,-8.74 -139.08,-26.23 -30.87,-17.49 -52.73,-46.45 -66.12,-86.9zm-14.48 -322.97c-47.82,-10.93 -81.43,-16.4 -100.56,-16.4 -76.51,0 -139.08,19.94 -187.44,59.57 -48.37,39.62 -72.68,86.62 -72.68,140.72 0,89.35 52.46,134.17 157.12,134.17 76.78,0 144.54,-36.61 203.57,-109.84l0 -208.21z"/>
  </g>
  <g id="_2134075069792">
   <path class="fil1" d="M2.34 375.85c0,0 769.15,1625.92 2852.72,1614.24 -1134.32,1516.5 -2928.73,-253.42 -2852.72,-1614.24z"/>
   <path class="fil2" d="M5818.67 1082.7c-1028.34,-145.78 -1961.09,379.11 -2860.02,1145.61 -721.77,615.43 -1385.34,1421.67 -2148.35,1600.02 0,0 1102.15,443.98 2297.77,-689.33 1195.62,-1133.31 1226.74,-1666.84 2710.6,-2056.31z"/>
   <path class="fil3" d="M5431.02 543.26c-138.71,-123.42 -378.7,-254.58 -545.97,-327.23 -939.09,-407.84 -1904.31,-206.4 -2744.67,337.76 -148.03,96.1 -309.84,211.93 -444.46,325.75 -67.14,56.77 -62.06,77.92 -15.21,153.18 88.8,127.43 284.16,304.96 445.43,314.57 86.32,5.14 98.47,-49.8 144.93,-108.56 171.94,-217.4 461.9,-442.64 698.4,-587.51 84.95,-51.16 171.33,-97.08 261.45,-138.45 725.48,-331.1 1475.11,-274.64 2200.1,30.49z"/>
   <path class="fil3" d="M1146.88 1310.43c0,0 183.04,-91.51 321.3,-205.43 0,0 207.38,278.46 333.95,320.32 -69.59,34.03 -97.77,54.59 -157.87,104.1 -65.13,53.64 -116.04,47.79 -191.76,13.61 -99.65,-44.99 -208.49,-139.53 -287.68,-215.29l-17.94 -17.31z"/>
   <path class="fil3" d="M5596.33 903.5c-243.61,-120.4 -616.84,-159.96 -881.64,-132.77 -654.42,77.17 -1133.29,456.21 -1503.48,981.47 -65.36,92.74 -89.13,93.76 -203.92,73.42 -78.7,-13.95 -157.98,-32.74 -233.99,-57.51 -101.64,-34.33 -217.22,-85.92 -292.28,-164.6 -106.69,-123.47 96.58,-267.68 181.85,-343.88 760.33,-679.38 1707.28,-959.82 2663.7,-507.39 94.52,45.84 180.89,95.4 269.76,151.25z"/>
   <path class="fil3" d="M1919.69 2790.44l0.12 0.03c0,0 -487.79,768.1 -1414.69,686.32 0,0 184.6,-490.28 626.71,-859.83 210.23,106.21 437.46,171.54 674.36,176.08 38.41,0.74 76.24,-0.17 113.49,-2.6zm-1424.25 -661.19c-83.11,120.56 -401.33,628.04 -323.27,1228.76 0,0 290.08,-648.37 649.48,-934.96 -117.14,-87.88 -226.45,-187.33 -326.21,-293.8z"/>
  </g>
 </g>
</svg>
