<?xml version="1.0" encoding="UTF-8"?>
<!DOCTYPE svg PUBLIC "-//W3C//DTD SVG 1.1//EN" "http://www.w3.org/Graphics/SVG/1.1/DTD/svg11.dtd">
<!-- Creator: CorelDRAW 2020 (64-Bit) -->
<svg xmlns="http://www.w3.org/2000/svg" xml:space="preserve" width="111.978mm" height="52.6801mm" version="1.1" style="shape-rendering:geometricPrecision; text-rendering:geometricPrecision; image-rendering:optimizeQuality; fill-rule:evenodd; clip-rule:evenodd"
viewBox="0 0 2536.92 1193.49"
 xmlns:xlink="http://www.w3.org/1999/xlink"
 xmlns:xodm="http://www.corel.com/coreldraw/odm/2003">
 <defs>
  <style type="text/css">
   <![CDATA[
    .fil1 {fill:#2B2A29;fill-rule:nonzero}
    .fil0 {fill:#2B2A29;fill-rule:nonzero}
   ]]>
  </style>
 </defs>
 <g id="Слой_x0020_1">
  <metadata id="CorelCorpID_0Corel-Layer"/>
  <path class="fil0" d="M639.81 1121.03c-15.34,-0.7 -28.21,-12.68 -28.21,-28.03l0.22 -502.58 -166.27 0 0 553.97c0,27.02 21.88,49.1 48.71,49.1l291.09 0c27.31,0 49.37,-22.08 49.37,-49.1l0 -553.97 -166.62 0 0 502.58c0,15.35 -13.09,27.33 -28.29,28.03zm1142.3 72.47l0 -151.36 -56.44 0 0 151.36 -166.32 0 0 -548.91c0,-30.19 24.18,-54.16 54.06,-54.16l280.78 0c29.97,0 54.2,23.98 54.2,54.16l0 548.91 -166.27 0zm0 -226.07l0 -277.69c-0.49,-15.31 -13.22,-27.28 -28.46,-27.28 -15.16,0 -27.77,12.27 -28.33,27.63l0 277.34 56.79 0zm-1447.58 74.62l-168.35 0 0 151.44 -166.18 0 0 -603.07 335.55 0c30.19,0 53.38,23.98 53.38,54.16l0 343.16c0,30.05 -24.3,54.3 -54.4,54.3zm-111.64 -351.53c0,-16.5 -13.79,-28.25 -28.33,-28.25l-28.38 0 0 305.15 28.38 0c14.71,0 28.33,-11.61 28.33,-28.55l0 -248.35zm722.38 -100.1c-29.79,0 -54.11,23.98 -54.11,54.16l0 548.91 166.28 0 0 -503.76c0.44,-15.18 13.08,-27.58 28.37,-27.58 15.21,0 28.16,11.88 28.33,27.4l0 503.94 165.79 0 0 -503.94c0.27,-15.53 12.68,-27.4 28.24,-27.4 15.51,0 27.98,12.4 28.37,27.58l0 503.76 166.23 0 0 -548.91c0,-30.19 -24.04,-54.16 -53.96,-54.16l-503.55 0z"/>
  <path class="fil1" d="M1384.14 31.2c8.86,-2.94 21.27,-29.08 33.34,-27.56 5.19,0.64 25.58,41.83 25.58,41.83 165.88,8.35 370.08,208.88 396.46,229.18 12.71,9.8 66.24,65.29 164.3,108.3 40.28,17.64 80.71,25.11 118.2,22.44 50.18,-3.56 106.14,-47.58 140.54,-107.35 43.19,-75.01 61.62,-205.51 186.25,-279.52 17.31,-10.31 56.98,-33.48 79.76,-4.32 18.42,23.53 3.3,62.67 -15.94,81.33 -12,11.67 -34.06,23.61 -75.78,43.4 -14.05,6.66 -37.19,24.03 -46.23,30.87 -44.69,34.29 -77.18,111.6 -113.28,196.33 0,0 -15.27,41.66 -83.1,86.5 -11.34,7.45 -1.1,13.7 11.29,29.73 16.07,20.85 48,107.07 43.91,237.97 -0.71,23.16 8.66,33.23 19.23,52.19 18.41,32.87 54.61,25.7 53.7,68.59 -1.17,57.91 41.39,70.25 27.82,96.9 -9.99,19.49 -6.62,38.27 -6.54,57.18 0.04,9.68 5.22,23.74 -14.73,22.58 -81.16,-4.77 -75.72,-113.85 -74.27,-151.32 1.37,-4.92 -2.42,-13.83 -3.04,-14.26 -3.89,-2.88 -54.67,-42.2 -58,-45.62 -61.48,-62.49 -101.96,-118.64 -124.61,-176.38 -15.01,-38.39 -30.43,-76.5 -56.77,-100.71 -29.4,-27.11 -65.84,-42.16 -97.56,-42.33 -225.99,-1.19 -272.42,-100.35 -333.95,-149.85 -1.79,-1.34 -7.43,-4.4 -10.78,-4.67 -3.35,0.28 -6.14,4.41 -8.26,6.2 -23.71,24.76 -47.69,33.02 -79.84,33.02 -76.31,0 -158.55,-67.02 -172.91,-52.02 -11.07,11.61 -1.63,35.51 -21.77,39.54 -29.47,5.89 -59.8,-23.11 -57.33,-47.63 4.39,-44.04 49.38,-56.89 88.83,-61.24 32.64,-3.66 59.3,5.29 65.44,6.13 18.29,2.41 21.44,-19.61 18.37,-33.93 -3.27,-15.31 -17.79,-18.56 -32.76,-22.97 -18.25,-5.38 -38.53,9.69 -52.23,4.9 -16.03,-5.58 -17.12,-13.84 -30.58,-25.59 -16.72,-14.7 -36.32,-18.58 -36.28,-39.46 0.02,-19.02 23.25,-20.63 30.08,-38.38 3.32,-8.66 2.29,-17.89 5.22,-23.18 7.97,-14.39 22.72,-13.67 34.64,-25.43 16.2,-15.97 24.18,-46.95 32.69,-48.28 8.48,-1.31 22.51,29.71 30.9,26.91z"/>
 </g>
</svg>
