<?xml version="1.0" encoding="UTF-8"?>
<!DOCTYPE svg PUBLIC "-//W3C//DTD SVG 1.1//EN" "http://www.w3.org/Graphics/SVG/1.1/DTD/svg11.dtd">
<!-- Creator: CorelDRAW 2020 (64-Bit) -->
<svg xmlns="http://www.w3.org/2000/svg" xml:space="preserve" width="448.344mm" height="90.4613mm" version="1.1" style="shape-rendering:geometricPrecision; text-rendering:geometricPrecision; image-rendering:optimizeQuality; fill-rule:evenodd; clip-rule:evenodd"
viewBox="0 0 13800.11 2784.41"
 xmlns:xlink="http://www.w3.org/1999/xlink"
 xmlns:xodm="http://www.corel.com/coreldraw/odm/2003">
 <defs>
  <style type="text/css">
   <![CDATA[
    .fil0 {fill:#FEFEFE;fill-rule:nonzero}
    .fil1 {fill:#B2C029;fill-rule:nonzero}
    .fil2 {fill:#AEBB30;fill-rule:nonzero}
   ]]>
  </style>
 </defs>
 <g id="Слой_x0020_1">
  <metadata id="CorelCorpID_0Corel-Layer"/>
  <g id="_1534490538960">
   <path class="fil0" d="M2434.69 1890.24l-55.35 0c-402.17,0 -804.33,1.05 -1206.48,-0.41 -244.12,-0.89 -460.35,-80.08 -642.57,-244.15 -167.07,-150.41 -268.91,-338.11 -301.95,-559.99 -70.98,-476.58 222.21,-909.51 656.7,-1042.49 102.81,-31.47 207.96,-45.23 315.47,-41.5 29.5,1.02 59.06,0.54 88.59,0.51 679.57,-0.73 1359.13,-1.51 2038.71,-2.2 19.38,-0.01 38.76,0.78 55.35,1.13 10.86,14.46 2.39,22.39 -3.14,29.61 -134.64,175.98 -302.01,303.7 -522.25,353.87 -86.59,19.72 -173.39,32.21 -262.85,31.95 -474.38,-1.41 -948.78,1.19 -1423.15,-1.42 -245.78,-1.35 -466.7,171.29 -521.21,411.89 -61.43,271.14 98.67,549.54 375.01,627.08 39.74,11.14 80.23,15.79 121.55,15.73 154.3,-0.22 308.6,0.95 462.89,0 117.67,-0.73 231.71,18.77 343.28,54.89 92.89,30.07 178.25,74.26 255.87,133.76 73.29,56.17 139.33,119.66 198.01,190.79 7.92,9.6 14.01,20.7 27.51,40.96z"/>
   <path class="fil1" d="M-0 2784.01c7.01,-13.12 9.23,-19.07 12.92,-23.9 51.03,-66.76 109.52,-126.58 173.48,-180.83 89.06,-75.55 191.79,-125.46 304.01,-156.47 98.47,-27.2 198.03,-42.17 301,-41.81 474.48,1.64 948.97,2.05 1423.45,-0.11 207.13,-0.94 367.57,-93.21 469.88,-273.27 174.51,-307.15 6.82,-691.45 -338.92,-779.69 -31.96,-8.15 -64.34,-11.39 -97.45,-11.28 -165.82,0.54 -331.74,3.69 -497.45,-0.57 -257.28,-6.61 -485.78,-88.86 -671.15,-273.48 -34.81,-34.68 -67.13,-71.9 -100.18,-108.3 -5.05,-5.56 -7.85,-13.14 -14.39,-24.45 19.07,-1.19 33.15,-2.79 47.25,-2.82 96.87,-0.25 193.74,-0.18 290.6,-0.18 305.39,0.02 610.76,-0.87 916.14,0.39 228.26,0.96 432.92,72.27 607.42,220.01 186.75,158.11 298.38,359.4 327.95,603.4 31.77,262.28 -35.22,498.35 -200.18,704.03 -148.63,185.32 -343.28,296.82 -577.65,337.32 -51.64,8.92 -104.04,12.44 -156.83,12.4 -715.82,-0.53 -1431.66,-0.38 -2147.49,-0.4 -21.23,0 -42.47,0 -72.4,0z"/>
  </g>
  <g id="_1534490539056">
   <g>
    <path class="fil0" d="M4097.02 1211.73c7.23,-13.69 9.33,-19.74 13.07,-24.48 71.69,-90.46 161.91,-151.95 275.9,-176.85 35.46,-7.75 70.92,-11.49 107.27,-11.44 361.18,0.41 722.37,0.26 1083.54,0.22 16.41,0 32.95,0.86 49.21,-0.84 61.01,-6.35 104.78,-53.31 104.16,-110.61 -0.53,-49.3 -34.82,-92.24 -83.85,-101.18 -22.38,-4.07 -45.72,-3.9 -68.62,-3.91 -375.95,-0.23 -751.91,-0.21 -1127.87,-0.14 -47.71,0.01 -95.2,-1.69 -141.31,-15.58 -121.53,-36.59 -225.96,-144.09 -237.51,-279 -5.79,-67.63 6.19,-131.18 41.8,-188.56 65.36,-105.29 161.83,-159.37 285.39,-165.46 18.01,-0.89 36.1,-0.31 54.16,-0.31 469.54,-0.01 939.07,-0.04 1408.6,0.09 19.33,0 38.97,-2.3 62.08,3.99 -4.3,9 -6.42,16.63 -10.92,22.39 -98.56,125.6 -228.8,189.59 -387.62,190.26 -359.54,1.54 -719.07,0.49 -1078.61,0.53 -18.06,0.01 -36.11,0.46 -54.16,0.75 -55.5,0.91 -97.02,49.68 -99.53,91.42 -3.31,54.85 26.25,99.73 79.82,114.8 14.06,3.96 28.96,5.55 43.59,6.67 14.69,1.12 29.53,0.31 44.31,0.31 379.24,0.01 758.47,0.05 1137.72,-0.05 37.85,-0.01 75.53,0.75 111.95,12.77 116.65,38.52 198.53,112.4 233.81,232.27 21.82,74.11 14.03,147.05 -20.61,215.06 -58.17,114.22 -153.42,176 -281.26,186.81 -21.22,1.79 -42.66,1.12 -64,1.12 -471.17,0.05 -942.35,0.05 -1413.52,0 -19.49,0 -38.98,-0.59 -66.98,-1.04z"/>
    <path class="fil0" d="M8933.43 1000.52c192,0 384,0 576,0 18.05,0 36.11,0.39 54.15,-0.14 61.23,-1.78 97.07,-37.39 97.27,-98.65 0.51,-150.81 0.17,-301.64 0.17,-452.47 0,-3.28 0.03,-6.56 -0.11,-9.84 -2.05,-47.54 -30.72,-80.31 -77.53,-86.33 -19.43,-2.5 -39.29,-2.19 -58.95,-2.2 -390.56,-0.11 -781.12,-0.09 -1171.69,-0.05 -14.77,0 -29.53,0.46 -44.29,0.48 -57.4,0.02 -94.41,46.55 -93.42,97.74 2.9,150.76 1.03,301.62 1.04,452.44 0,3.28 -0.06,6.56 0.07,9.84 1.97,47.39 35.27,83.64 82.23,88.42 14.63,1.49 29.5,0.73 44.27,0.74 196.92,0.03 393.85,0.02 590.77,0.02zm10.15 -866.94c203.54,0 407.08,0.22 610.62,-0.2 34.7,-0.07 68.8,2.8 102.2,12.12 130.08,36.29 227.14,150.88 227.02,287.46 -0.12,162.34 -0.12,324.68 0.01,487.02 0.11,139.41 -101.54,257.54 -236.88,289.18 -30.05,7.03 -61.62,10.47 -92.49,10.51 -410.37,0.67 -820.72,0.49 -1231.08,0.42 -75.99,-0.01 -145.93,-19.57 -206.9,-66.19 -77.89,-59.55 -119.54,-138.52 -120.3,-236.55 -1.24,-160.68 -1.18,-321.4 -0.06,-482.08 0.97,-137.29 95.88,-255.6 230.05,-290.36 33.57,-8.7 67.58,-11.63 102.28,-11.55 205.18,0.43 410.36,0.21 615.54,0.22z"/>
    <path class="fil0" d="M11611.39 783.83c9.88,12.47 19.36,25.35 29.78,37.43 91.16,105.56 182.51,210.95 273.71,316.46 9.64,11.16 19.63,22.18 27.84,34.38 11.9,17.69 4.54,36.17 -16.18,42.13 -7.78,2.25 -16.1,3.56 -24.18,3.6 -52.54,0.33 -105.09,-0.39 -157.61,0.43 -27.75,0.43 -45.14,-14.79 -62.22,-33.75 -107.64,-119.47 -215.76,-238.51 -323.77,-357.65 -12.05,-13.28 -24.46,-26.22 -37.51,-40.17 -355.14,0 -709.72,-0.01 -1064.29,0.15 -6.23,0 -12.45,2.18 -18.95,3.4 -10.03,17.94 -7.43,36.24 -7.48,53.86 -0.28,98.41 -0.04,196.83 -0.24,295.25 -0.03,16.36 -0.98,32.76 -2.1,49.09 -1.05,15.19 -10.83,23.23 -24.63,26.99 -4.7,1.29 -9.69,2.17 -14.54,2.19 -45.97,0.2 -91.97,1.29 -137.9,-0.19 -33.64,-1.1 -42.76,-12 -44.39,-45.66 -0.54,-11.47 -0.21,-22.97 -0.21,-34.45 -0.01,-162.39 -0.01,-324.77 0,-487.15 0,-13.13 -0.45,-26.29 0.37,-39.36 1.88,-30.04 12,-40.13 42.94,-42.13 16.35,-1.05 32.82,-0.45 49.24,-0.45 474.51,-0.02 949.01,-0.01 1423.51,-0.03 16.41,0 32.92,0.77 49.23,-0.62 58.18,-4.95 103.81,-56.17 101.25,-112.74 -2.32,-50.95 -45.57,-96.5 -96.96,-101.09 -16.31,-1.45 -32.81,-0.81 -49.22,-0.81 -359.58,-0.04 -719.15,0.89 -1078.72,-0.46 -158.38,-0.6 -289.93,-61.67 -389.72,-186.55 -5.7,-7.14 -9.75,-15.59 -15.63,-25.15 7.96,-3.01 12.13,-5.74 16.43,-5.99 13.09,-0.74 26.26,-0.66 39.38,-0.66 477.79,-0.02 955.57,0.09 1433.36,-0.23 36.32,-0.02 72.03,2.68 107.44,10.71 182.36,41.36 295.62,230.53 240.87,408.29 -33.82,109.81 -112.3,178.16 -219.96,214.38 -13.94,4.69 -28.43,7.74 -42.63,11.7 -1.31,0.37 -2.37,1.74 -6.35,4.82z"/>
    <path class="fil0" d="M6060.11 138.52c20.31,-7.9 38.42,-4.76 55.97,-4.79 197.01,-0.27 394.01,-0.17 591.01,-0.16 285.66,0 571.31,0.3 856.97,-0.28 46.46,-0.1 91.59,5.2 135.42,20.39 115.43,40.02 219.26,142.25 218.6,301.88 -0.7,172.45 -118.72,277.34 -240.34,311.59 -35.2,9.9 -70.93,12.35 -107.15,12.32 -162.53,-0.1 -325.05,-0.01 -487.58,-0.01 -256.1,0.01 -512.21,-0.06 -768.31,0.14 -17.72,0.01 -35.95,-2.75 -53.99,4.48 -8.1,15.95 -5,32.53 -5.05,48.46 -0.28,104.96 -0.09,209.92 -0.23,314.89 -0.01,13.08 -0.04,26.31 -1.86,39.21 -2.03,14.49 -11.52,22.44 -26.38,24.98 -1.62,0.27 -3.26,0.53 -4.88,0.53 -52.52,0.05 -105.07,0.73 -157.57,-0.25 -20.9,-0.39 -29.05,-9.97 -30.88,-30.76 -0.86,-9.77 -0.54,-19.67 -0.54,-29.5 -0.02,-173.85 0.35,-347.69 -0.22,-521.54 -0.18,-55.93 3.69,-63.41 64.53,-63.35 481.01,0.49 962.03,0.27 1443.05,0.26 14.78,0 29.55,-0.2 44.32,-0.13 22.05,0.11 41.89,-7.34 60.46,-18.27 41.72,-24.59 62.38,-68.49 53.35,-112.14 -8.16,-39.37 -45.8,-75.56 -88.59,-82.21 -20.95,-3.27 -42.52,-3.29 -63.82,-3.3 -274.16,-0.21 -548.32,-0.14 -822.49,-0.14 -88.65,0 -177.32,1.13 -265.95,-0.26 -156.83,-2.45 -286.19,-63.01 -384.8,-186.21 -3.07,-3.83 -6.07,-7.78 -8.52,-12.01 -1.55,-2.67 -2.04,-5.97 -4.55,-13.81z"/>
    <path class="fil0" d="M13800.11 133.56c-10.85,16.94 -15.16,25.3 -20.95,32.48 -99,122.84 -228.68,182.72 -385.4,184.51 -113.2,1.3 -226.43,0.18 -339.66,0.37 -17.75,0.03 -35.5,1.37 -52.95,2.08 -10.87,21.43 -7.08,41.36 -7.1,60.5 -0.27,240.96 -0.17,481.93 -0.21,722.91 0,14.75 0.51,29.56 -0.63,44.24 -1.76,22.5 -11.07,31.97 -33.13,36.02 -1.62,0.29 -3.25,0.64 -4.88,0.64 -49.21,0 -98.45,1.17 -147.61,-0.55 -25.92,-0.91 -34.21,-11.66 -35.73,-37.53 -0.86,-14.71 -0.4,-29.5 -0.4,-44.25 -0.01,-239.33 0.07,-478.67 -0.18,-717.99 -0.02,-19.36 3.48,-39.3 -5.61,-59.53 -15.86,-9.87 -34.29,-6.41 -51.78,-6.46 -109.93,-0.35 -219.88,-1.11 -329.82,0.15 -70.06,0.8 -136.96,-13.08 -201.67,-37.88 -85.26,-32.67 -150.9,-90.93 -205.12,-163 -1.59,-2.1 -0.68,-6.06 -1.19,-12.19 5.24,-1.35 10.95,-3.84 16.74,-4.11 14.73,-0.66 29.52,-0.38 44.29,-0.38 564.47,-0.01 1128.93,-0.01 1693.4,-0.02 19.54,0 39.07,0 69.56,0z"/>
   </g>
   <g>
    <path class="fil1" d="M4101.11 2643.63c9.72,-16.42 13.41,-25.28 19.33,-32.25 88.64,-104.48 202.33,-158.83 338.49,-167.3 19.63,-1.22 39.4,-0.43 59.09,-0.43 344.73,-0.02 689.45,0.03 1034.18,-0.12 22.94,-0.01 46.13,0.24 68.77,-2.86 17.54,-2.39 35.65,-7.36 51.32,-15.44 42.49,-21.93 66.72,-71.7 58.57,-115.07 -9.34,-49.85 -50.63,-87.95 -101.67,-92.4 -19.58,-1.71 -39.36,-1.13 -59.06,-1.13 -377.55,-0.06 -755.11,-0.22 -1132.68,0.15 -46.33,0.04 -92.17,-3.3 -135.95,-18.26 -119.01,-40.69 -198.46,-119.12 -224.95,-244.6 -20.77,-98.41 5.78,-185.72 70.71,-260.63 62.03,-71.56 141.87,-109.68 236.99,-114.33 16.38,-0.8 32.82,-0.8 49.23,-0.8 472.77,-0.04 945.54,-0.09 1418.31,0.14 18.96,0.01 38.78,-3.75 60.66,7.25 -6,9.85 -9.91,18.42 -15.7,25.46 -71.44,86.99 -162.59,141.25 -272.98,163.51 -33.88,6.83 -67.85,10.26 -102.56,10.22 -357.87,-0.44 -715.72,-0.33 -1073.57,-0.33 -19.7,0 -39.45,-0.46 -59.08,0.72 -61.26,3.64 -105.81,49.14 -106.06,107.5 -0.24,57.42 44.6,106.71 103.08,112 19.56,1.77 39.36,1.02 59.06,1.02 377.55,0.06 755.11,-0.14 1132.68,0.38 30.98,0.04 62.27,2.94 92.89,7.75 124.44,19.57 253.04,124 273.22,279.53 8.35,64.28 -4.93,124.8 -35.87,180.18 -57.73,103.32 -147.01,160.56 -265.59,170.5 -19.59,1.64 -39.36,1.59 -59.05,1.59 -472.77,0.09 -945.53,0.09 -1418.3,0 -17.82,0 -35.64,-1.06 -63.52,-1.95z"/>
    <path class="fil1" d="M10730.91 2219.72c7.99,11.74 14.14,22.81 22.21,32.25 55.44,64.83 111.27,129.33 167,193.89 41.79,48.43 83.72,96.75 125.44,145.25 10.49,12.22 25.56,23.93 18,42.5 -8.75,21.53 -29.67,16.87 -47.15,17.06 -45.95,0.47 -91.95,-0.85 -137.87,0.55 -26.9,0.82 -46.56,-8.3 -64.4,-28.42 -66.39,-74.87 -134.01,-148.66 -201.11,-222.88 -44.01,-48.67 -88.92,-96.57 -131.51,-146.45 -22.08,-25.84 -46.68,-36.39 -80.94,-35.9 -119.8,1.71 -239.66,0.73 -359.48,0.75 -208.48,0.02 -416.96,-0.06 -625.44,0.23 -19.36,0.03 -39.37,-3.6 -58,5.76 -12.84,15.77 -8.88,34.5 -8.96,52.06 -0.4,100.03 -0.16,200.07 -0.25,300.1 -0.01,14.76 0.23,29.58 -1.11,44.24 -1.66,18.24 -10.09,28.56 -27.53,28.9 -50.83,0.99 -101.71,0.74 -152.54,-0.4 -14.78,-0.33 -23.42,-10.29 -25.5,-25.51 -1.77,-12.93 -2.02,-26.14 -2.03,-39.23 -0.13,-168.92 -0.25,-337.82 -0.01,-506.74 0.1,-61.69 2.12,-63.69 63.59,-63.7 477.69,-0.08 955.38,0.02 1433.08,0.04 16.41,0.01 32.87,0.58 49.23,-0.41 37.96,-2.3 69.48,-18.36 93.83,-47.48 34.4,-41.12 34.61,-93.93 0.15,-135.02 -24.27,-28.96 -54.79,-46.49 -93.86,-46.12 -14.77,0.14 -29.55,-0.1 -44.31,-0.1 -364.43,0.04 -728.86,1.04 -1093.28,-0.31 -145.98,-0.54 -267.08,-58.88 -361.85,-170.41 -4.22,-4.97 -8.08,-10.35 -11.43,-15.94 -1.55,-2.57 -1.5,-6.11 -2.23,-9.47 3.9,-9.7 12.96,-8.2 20.7,-8.6 11.46,-0.6 22.98,-0.36 34.46,-0.35 477.69,0.06 955.38,0.2 1433.08,0.18 39.47,0 78.47,1.59 117.04,12.11 181.96,49.61 284.08,251.02 212.52,425.11 -37.69,91.69 -108.56,149.87 -201.8,182.09 -18,6.22 -38.71,5.48 -57.74,20.38z"/>
    <path class="fil1" d="M6517.16 2221.11c-10.26,17.17 -6.92,35.61 -6.98,53.28 -0.35,100.02 -0.15,200.04 -0.21,300.05 -0.01,13.12 0.27,26.28 -0.78,39.33 -1.64,20.18 -10.13,29.12 -29.92,33.03 -4.8,0.94 -9.76,1.53 -14.66,1.55 -41.02,0.12 -82.09,1.18 -123.07,-0.29 -34.01,-1.22 -42.52,-11.34 -44.34,-45.47 -0.43,-8.18 -0.23,-16.39 -0.23,-24.58 -0.01,-165.6 -0.1,-331.21 0.02,-496.81 0.05,-67.69 1.45,-69.26 68.64,-69.27 469.42,-0.06 938.82,0.03 1408.22,0.06 19.7,0.01 39.54,1.22 59.05,-0.75 19.42,-1.94 39.41,-4.72 57.55,-11.46 49.65,-18.45 81.49,-68.13 75.95,-114.42 -6.08,-50.81 -52.7,-95.1 -106.79,-99.75 -22.83,-1.95 -45.92,-1.19 -68.9,-1.19 -357.8,-0.06 -715.6,0.75 -1073.4,-0.51 -108.04,-0.39 -206.78,-33.61 -291.32,-102.49 -25.3,-20.61 -47.52,-45.12 -70.29,-68.66 -6.29,-6.5 -9.5,-15.97 -16.32,-27.92 11.28,-2.77 18.55,-5.6 25.98,-6.14 13.06,-0.94 26.23,-0.57 39.36,-0.55 469.42,0.04 938.82,0.14 1408.23,0.16 46.04,0 91.78,1.18 136.31,15.42 109.58,35.01 217.81,131.42 223.65,287.7 6.09,162.51 -101.07,277.14 -226.06,316.04 -39.64,12.33 -80.47,15.1 -121.64,15.13 -95.2,0.1 -190.38,0.18 -285.58,0.2 -316.76,0.02 -633.54,-0.08 -950.31,0.18 -24.26,0.02 -49.32,-3.89 -72.15,8.12z"/>
    <path class="fil1" d="M12768.54 1785.93c-21.34,-0.72 -40.8,-1.91 -60.26,-1.93 -116.49,-0.12 -233.04,2.16 -349.47,-0.45 -147.34,-3.29 -269.91,-61.44 -364.23,-175.95 -3.94,-4.76 -5.92,-11.15 -10.57,-20.17 9.19,-3.12 16.17,-7.07 23.41,-7.6 16.32,-1.2 32.78,-0.9 49.18,-0.89 551.31,0.09 1102.61,0.16 1653.91,0.5 20.71,0.02 42.2,-3.92 65.68,7.3 -3.86,8.34 -5.72,16.24 -10.37,21.85 -72.73,87.86 -164.78,143.78 -277.06,165.71 -33.85,6.61 -67.85,10.24 -102.55,9.99 -111.57,-0.79 -223.15,-0.39 -334.72,-0.23 -17.84,0.03 -35.69,1.19 -55.74,1.91 -3.6,12.57 -8.2,22.92 -9.25,33.63 -1.6,16.25 -0.91,32.74 -0.92,49.13 -0.03,234.39 0.01,468.79 -0.07,703.19 -0.01,16.38 0.03,32.85 -1.65,49.09 -1.87,18.02 -10.68,27.91 -28.23,28.31 -49.18,1.13 -98.41,1.3 -147.6,0.23 -19.58,-0.43 -27.84,-10.9 -29.36,-32.34 -1.16,-16.32 -0.88,-32.76 -0.88,-49.14 -0.06,-237.67 0.03,-475.36 -0.15,-713.03 -0.02,-20.97 2.77,-42.5 -9.09,-69.09z"/>
    <path class="fil1" d="M8738.11 2111.44c0,153.97 0.02,307.95 -0.03,461.93 0,14.73 0.28,29.52 -0.87,44.19 -1.83,23.16 -10.19,30.7 -34.27,33 -1.63,0.16 -3.27,0.25 -4.91,0.25 -44.27,-0.01 -88.56,0.7 -132.8,-0.35 -28.03,-0.66 -37.51,-10.9 -39.88,-39.04 -0.96,-11.4 -0.62,-22.93 -0.62,-34.39 -0.02,-307.95 -0.08,-615.9 0.02,-923.86 0.02,-73.51 1.29,-74.73 73.62,-74.84 36.06,-0.04 72.17,-0.3 108.17,1.29 21.83,0.97 28.98,9.18 30.65,30.6 1.15,14.66 0.87,29.46 0.88,44.19 0.04,152.33 0.03,304.68 0.03,457.01z"/>
    <path class="fil2" d="M11604.95 2111.49c0,152.46 0.01,304.93 -0.02,457.39 0,14.76 0.38,29.56 -0.55,44.26 -1.83,28.61 -9.72,35.93 -40.34,37.3 -18.01,0.8 -36.09,0.38 -54.15,0.32 -26.24,-0.07 -52.54,0.54 -78.74,-0.74 -23.63,-1.16 -31.85,-9.62 -34.43,-33.31 -1.41,-12.99 -1.25,-26.19 -1.26,-39.28 -0.06,-309.86 -0.12,-619.71 0.03,-929.56 0.03,-67.3 1.59,-68.62 68.89,-68.94 34.45,-0.16 68.95,-0.66 103.37,0.63 28.25,1.05 34.89,8.21 36.6,35.2 0.94,14.7 0.59,29.49 0.59,44.24 0.03,150.84 0.02,301.66 0.02,452.49z"/>
   </g>
  </g>
 </g>
</svg>
