<?xml version="1.0" encoding="UTF-8"?>
<!DOCTYPE svg PUBLIC "-//W3C//DTD SVG 1.1//EN" "http://www.w3.org/Graphics/SVG/1.1/DTD/svg11.dtd">
<!-- Creator: CorelDRAW 2020 (64-Bit) -->
<svg xmlns="http://www.w3.org/2000/svg" xml:space="preserve" width="100.559mm" height="75.1651mm" version="1.1" style="shape-rendering:geometricPrecision; text-rendering:geometricPrecision; image-rendering:optimizeQuality; fill-rule:evenodd; clip-rule:evenodd"
viewBox="0 0 962.23 719.24"
 xmlns:xlink="http://www.w3.org/1999/xlink"
 xmlns:xodm="http://www.corel.com/coreldraw/odm/2003">
 <defs>
  <style type="text/css">
   <![CDATA[
    .fil0 {fill:#FEFEFE}
   ]]>
  </style>
 </defs>
 <g id="Слой_x0020_1">
  <metadata id="CorelCorpID_0Corel-Layer"/>
  <path class="fil0" d="M46.6 332.6c-12.73,0 -23.04,-10.31 -23.04,-23.04 0,-12.73 10.31,-23.04 23.04,-23.04 12.73,0 23.07,10.31 23.07,23.04 0,12.73 -10.34,23.04 -23.07,23.04zm487.11 -332.6l-0.25 0c-61.27,0.04 -121.46,24.16 -162.6,69.12 -81.35,-34.56 -189.45,-33.53 -270.02,23.29 -77.28,54.51 -100.85,132.73 -100.85,172.62 17.99,-17.49 44.1,-26.73 72.16,-21.71 33.28,5.95 59.74,32.59 65.13,65.96 8.15,50.41 -30.93,93.96 -80.3,93.96 -15.98,0 -30.87,-4.58 -43.45,-12.45 96.3,226.04 325.01,152.62 325.01,247.13 0,55.71 -80.19,52.76 -131.12,30.11l-10.24 22.64c57.44,40.9 231.82,58.18 231.82,-91.69 0,-74.78 -59.14,-103.4 -104.64,-132.39 -81.35,-51.84 -69.73,-132.48 -46.5,-167.04 22.76,-33.81 56.63,-56.59 112.51,-36l61.87 -136.81c-15.05,-14.16 -36.58,-30.01 -52.31,-40.35 24.13,-27.7 76.66,-51.84 133.69,-51.84 114.38,0 185.99,77.71 185.99,163.89 0,85.14 -67.17,158.71 -176.81,158.71 -69.76,0 -105.64,-21.7 -136.8,-46.06l-46.86 103.61c23.88,18.11 58.9,35.63 104.72,46.13l0 253.39 104.65 0 0.67 -253.39c127.21,-11.52 208.59,-109.44 208.59,-230.4 0,-132.31 -96.39,-230.4 -244.05,-230.44zm-475.59 263.48c-31.82,0 -57.63,25.78 -57.63,57.6 0,31.8 25.81,57.61 57.63,57.61 31.85,0 57.66,-25.81 57.66,-57.61 0,-31.82 -25.81,-57.6 -57.66,-57.6zm682.54 231.19c130.33,0 221.57,0 221.57,103.69 0,57.68 -58.99,69.2 -93.29,69.2l0 -23.04c27.8,0 47.26,-11.52 47.26,-34.56 0,-28.8 -35.44,-34.63 -70.89,-34.63l0 138.92 -104.65 -0.68 0 -218.89zm-138.4 0.15l104.65 0 0 219.42 -104.65 0 0 -219.42z"/>
 </g>
</svg>
